<svg fill="none" xmlns="http://www.w3.org/2000/svg" viewBox="0 0 16 16" class="design-iconfont">
  <path d="M5.17325 10.8271C4.44659 10.1071 3.99992 9.10711 3.99992 8.00044C3.99992 6.89378 4.44659 5.89378 5.17325 5.17378L6.11992 6.12044C5.63325 6.60044 5.33325 7.26711 5.33325 8.00044C5.33325 8.73378 5.63325 9.40044 6.11325 9.88711L5.17325 10.8271ZM10.8266 10.8271C11.5533 10.1071 11.9999 9.10711 11.9999 8.00044C11.9999 6.89378 11.5533 5.89378 10.8266 5.17378L9.87992 6.12044C10.3666 6.60044 10.6666 7.26711 10.6666 8.00044C10.6666 8.73378 10.3666 9.40044 9.88659 9.88711L10.8266 10.8271ZM7.99992 6.66711C7.26659 6.66711 6.66659 7.26711 6.66659 8.00044C6.66659 8.73378 7.26659 9.33378 7.99992 9.33378C8.73325 9.33378 9.33325 8.73378 9.33325 8.00044C9.33325 7.26711 8.73325 6.66711 7.99992 6.66711ZM13.3333 8.00044C13.3333 9.47378 12.7333 10.8071 11.7666 11.7671L12.7133 12.7138C13.9199 11.5071 14.6666 9.84044 14.6666 8.00044C14.6666 6.16044 13.9199 4.49378 12.7133 3.28711L11.7666 4.23378C12.7333 5.19378 13.3333 6.52711 13.3333 8.00044ZM4.23325 4.23378L3.28659 3.28711C2.07992 4.49378 1.33325 6.16044 1.33325 8.00044C1.33325 9.84044 2.07992 11.5071 3.28659 12.7138L4.23325 11.7671C3.26659 10.8071 2.66659 9.47378 2.66659 8.00044C2.66659 6.52711 3.26659 5.19378 4.23325 4.23378Z" fill="#fff"/>
</svg>
