<svg width="92" height="28" viewBox="0 0 92 28" fill="none" xmlns="http://www.w3.org/2000/svg">
<g clip-path="url(#clip0_148_14133)">
<path d="M7.48068 8.24446C8.89886 8.24446 10.1534 8.78991 11.0807 9.66264H13.808C12.4989 7.53537 10.1534 6.11719 7.48068 6.11719C3.38977 6.11719 0.0625 9.44446 0.0625 13.5354C0.0625 17.6263 3.38977 20.9536 7.48068 20.9536C10.1534 20.9536 12.4989 19.5354 13.808 17.4081H11.0807C10.1534 18.2808 8.84432 18.8263 7.48068 18.8263C4.53523 18.8263 2.18977 16.4263 2.18977 13.5354C2.18977 10.6445 4.58977 8.24446 7.48068 8.24446Z" fill="#090E17"/>
<path d="M24.8256 10.8629C23.8438 10.0993 22.6438 9.6084 21.2801 9.6084C18.1711 9.6084 15.6074 12.172 15.6074 15.2811C15.6074 18.3902 18.1711 20.9539 21.2801 20.9539C22.3165 20.9539 23.2983 20.6811 24.1165 20.1902V17.4084C23.462 18.2811 22.4256 18.8266 21.2801 18.8266C19.3165 18.8266 17.7347 17.2448 17.7347 15.2811C17.7347 13.3175 19.3165 11.7357 21.2801 11.7357C23.2438 11.7357 24.8256 13.3175 24.8256 15.2811V18.1175H26.9529V9.66294H24.8256V10.8629Z" fill="#090E17"/>
<path d="M26.9534 18.8262H24.8262V20.9534H26.9534V18.8262Z" fill="#F24A00"/>
<path d="M31.2093 9.66211H29.082V21.0076H31.2093V9.66211Z" fill="#090E17"/>
<path d="M51.7718 8.95312H49.6445V21.0077H51.7718V8.95312Z" fill="#090E17"/>
<path d="M39.7181 9.66309C38.4636 9.66309 37.3181 10.2085 36.5545 11.0813C35.7908 10.2085 34.6454 9.66309 33.3908 9.66309C32.8999 9.66309 32.409 9.77218 31.9727 9.88127V12.3358C32.3545 12.0085 32.8454 11.7904 33.3908 11.7904C34.5363 11.7904 35.5181 12.7176 35.5181 13.9176V21.0085H37.6454V13.9176C37.6454 12.7722 38.5727 11.7904 39.7727 11.7904C40.9181 11.7904 41.8999 12.7176 41.8999 13.9176V21.0085H44.0272V13.9176C43.9727 11.5722 42.0636 9.66309 39.7181 9.66309Z" fill="#090E17"/>
<path d="M73.0452 9.66211H70.918V21.0076H73.0452V9.66211Z" fill="#090E17"/>
<path d="M68.7894 9.66211H66.6621V21.0076H68.7894V9.66211Z" fill="#090E17"/>
<path d="M75.1721 9.66211C74.6812 9.66211 74.1903 9.7712 73.7539 9.88029V12.3348C74.1357 12.0076 74.6266 11.7894 75.1721 11.7894C76.3175 11.7894 77.2994 12.7167 77.2994 13.9167V21.0076H79.4266V13.9167C79.4266 11.5712 77.5175 9.66211 75.1721 9.66211Z" fill="#090E17"/>
<path d="M83.68 6.11719H81.5527V21.0081H83.68V6.11719Z" fill="#090E17"/>
<path d="M60.2795 9.66309C59.7886 9.66309 59.2977 9.77218 58.8613 9.88127V12.3358C59.2431 12.0085 59.7341 11.7904 60.2795 11.7904C61.425 11.7904 62.4068 12.7176 62.4068 13.9176V21.0085H64.5341V13.9176C64.5341 11.5722 62.625 9.66309 60.2795 9.66309Z" fill="#090E17"/>
<path d="M46.0996 6.11719V8.24446H56.0269V20.9536H58.1542V8.24446V6.11719H46.0996Z" fill="#090E17"/>
<path d="M85.5359 15.2803L90.8269 9.66211H87.8814L84.3359 13.4257V17.0803L88.2632 20.953H91.2632L85.5359 15.2803Z" fill="#090E17"/>
<path d="M66.9847 5.95284L65.4805 7.45703L66.9847 8.96123L68.4889 7.45703L66.9847 5.95284Z" fill="#F24A00"/>
<path d="M69.7974 3.70749L68.1914 4.63477L69.1187 6.2408L70.7247 5.31353L69.7974 3.70749Z" fill="#F24A00"/>
<path d="M67.5259 1.5252L65.998 1.93457L66.4074 3.46245L67.9353 3.05307L67.5259 1.5252Z" fill="#F24A00"/>
</g>
<defs>
<clipPath id="clip0_148_14133">
<rect width="92" height="22.4889" fill="white"/>
</clipPath>
</defs>
</svg>
