<svg fill="none" xmlns="http://www.w3.org/2000/svg" viewBox="0 0 104 104" class="design-iconfont">
  <path d="M51.6748 94.3309V54.1934L91.6498 37.5371V79.0559L51.6748 94.3309Z" fill="#E5E6EB"/>
  <path d="M12.3499 78.975L51.6749 94.3312V54.1937L11.6187 37.375L12.3499 78.975Z" fill="#C9CDD4"/>
  <path d="M31.7895 25.4571L31.0947 17.4816L34 19.5061L31.7895 25.4571ZM27.1158 16.5L30.7158 26.5L22.7579 20.181L27.1158 16.5ZM22 22.819L28.8842 26.5L22.7579 25.8252L22 22.819Z" fill="#F24A00"/>
  <path d="M51.6749 54.1937L41.2749 75.8875L1.4624 59.3937L11.6187 37.375L51.6749 54.1937Z" fill="#F2F3F5"/>
  <path d="M51.6749 22.0996L11.6187 37.3746L51.6749 54.1121V22.0996Z" fill="#E5E6EB"/>
  <path d="M52 54.1562L63.1313 75.7687L103.106 59.3562L91.8937 37.5L52 54.1562Z" fill="#F2F3F5"/>
  <path d="M91.6498 37.5371L51.6748 22.0996V54.1121L91.6498 37.5371Z" fill="#C9CDD4"/>
  <path fill-rule="evenodd" clip-rule="evenodd" d="M50.5504 48.2709C51.6769 48.1028 52.7272 47.8352 53.7017 47.4688L53.8473 47.413L54.081 48.1679C53.0385 48.5736 51.92 48.8711 50.7261 49.0606L50.5551 49.0869L50.5504 48.2709ZM57.157 45.5191L57.3307 45.492L57.5091 45.4624L57.516 45.461L57.9559 45.9043C57.0712 46.6916 56.0878 47.3441 55.0076 47.8609L54.872 47.9247L54.5534 47.1774C55.4641 46.7544 56.2991 46.2291 57.0596 45.6007L57.157 45.5191ZM46.3899 48.486C47.4984 48.5279 48.5528 48.4988 49.553 48.3989L49.7399 48.3793L49.6885 49.1951C48.6481 49.3091 47.5553 49.3487 46.4101 49.3144L46.1948 49.3071L46.3899 48.486ZM63.179 42.7901L63.4859 43.5473C62.4023 44.0328 61.3363 44.4349 60.2923 44.7544L60.0968 44.8134L59.9199 44.008C60.9151 43.7125 61.9336 43.3375 62.9713 42.8822L63.179 42.7901ZM59.9744 42.0187L60.7403 42.3417C60.2932 43.1295 59.7955 43.8504 59.247 44.504L59.2391 44.513L59.3299 45.0694C58.7743 45.2138 58.2267 45.3343 57.6883 45.431L57.516 45.461L57.381 45.3251C57.3106 45.3878 57.2395 45.4495 57.1678 45.5103L57.1569 45.5192L57.1529 45.5199C56.7388 45.5829 56.3305 45.6316 55.9284 45.6662L55.7564 45.6801L55.8032 44.8337C56.5443 44.7773 57.3095 44.6693 58.0956 44.5089L58.1803 44.4912L58.2245 44.4438C58.8437 43.7694 59.4011 43.0064 59.8967 42.154L59.9744 42.0187ZM58.1802 44.491L58.1262 44.5493L58.0269 44.6536L58.6472 45.1707C58.8191 44.9925 58.9865 44.8084 59.1496 44.6185L59.2391 44.5128L59.1969 44.2529C58.8874 44.3333 58.5808 44.4059 58.2773 44.4707L58.1802 44.491ZM67.0102 40.7357L67.4022 41.3661C66.4378 41.9591 65.4833 42.4913 64.541 42.9629L64.3238 43.0706L64.0229 42.3899C64.934 41.9421 65.8585 41.4348 66.7941 40.8676L67.0102 40.7357ZM42.2279 47.7779C43.2826 47.9993 44.2965 48.1656 45.2697 48.2769L45.4776 48.2999L45.2841 49.1374C44.2884 49.0309 43.253 48.8681 42.178 48.6494L41.947 48.6016L42.2279 47.7779ZM51.7262 44.5262C52.6764 44.7453 53.7166 44.8483 54.8292 44.8277L54.9814 44.8241L54.8729 45.663C53.6762 45.6971 52.552 45.598 51.5199 45.3728L51.3858 45.3427L51.7262 44.5262ZM70.7766 38.1852L71.2705 38.771C70.3419 39.4707 69.419 40.1196 68.5032 40.7176L68.2744 40.8661L67.8502 40.2316C68.7426 39.6564 69.6428 39.0309 70.5498 38.3552L70.7766 38.1852ZM38.2126 46.8789C39.2193 47.1781 40.1956 47.436 41.1413 47.6526L41.3771 47.7058L41.0696 48.5262C40.1106 48.3125 39.1218 48.0569 38.103 47.7596L37.8477 47.6844L38.2126 46.8789ZM74.1837 35.4407L74.7444 35.9742C73.8997 36.722 73.0576 37.428 72.2189 38.0923L71.9902 38.2725L71.4811 37.6961C72.296 37.0575 73.1149 36.3782 73.937 35.658L74.1837 35.4407ZM48.2272 42.8774C48.9048 43.4597 49.7407 43.9324 50.7052 44.2709L50.8129 44.308L50.4354 45.0828C49.371 44.7236 48.441 44.214 47.6797 43.5791L47.5988 43.5106L48.2272 42.8774ZM61.7269 38.2153L62.5939 38.3384C62.2346 39.4258 61.8158 40.4346 61.3369 41.365L61.2518 41.5283L60.4449 41.2645C60.9056 40.3912 61.3113 39.4395 61.6618 38.4094L61.7269 38.2153ZM77.3278 32.3246L77.9557 32.8377C77.1917 33.6236 76.4281 34.3742 75.6651 35.0895L75.4109 35.3267L74.8221 34.7755C75.5727 34.0793 76.3245 33.348 77.077 32.5815L77.3278 32.3246ZM34.4235 45.5937C35.3658 45.9276 36.2851 46.2304 37.1813 46.5019L37.4495 46.5824L37.0653 47.3703C36.1614 47.1013 35.2348 46.801 34.2855 46.4692L34 46.3688L34.4235 45.5937ZM45.6596 40.0874L46.4967 39.8702C46.6662 40.7458 47.0772 41.5712 47.7044 42.2921L47.7679 42.3639L47.1 42.9223C46.3749 42.1154 45.89 41.1811 45.6786 40.1813L45.6596 40.0874ZM62.6552 34.2497L62.712 34.2507L63.5563 34.148L63.5553 34.2382L63.516 34.4792C63.3517 35.4634 63.1515 36.3992 62.9151 37.2867L62.8599 37.4907L61.984 37.3837C62.2355 36.4689 62.4472 35.4979 62.619 34.4707L62.6503 34.279L62.6505 34.2582L62.6537 34.2578L62.6552 34.2497ZM80.3022 29.1113L80.9619 29.567C80.252 30.3723 79.5417 31.1482 78.8316 31.8947L78.5653 32.1733L77.9362 31.6843C78.637 30.9549 79.3381 30.1962 80.0393 29.4082L80.3022 29.1113ZM62.6536 34.2576L62.6502 34.2789L62.6501 34.3059L63.1029 34.2579L62.7119 34.2506L62.6536 34.2576ZM46.3177 35.8975L47.1192 36.1442C46.8894 36.6066 46.7014 37.0803 46.5576 37.5631C46.4155 38.0404 46.3425 38.5144 46.3376 38.9813L46.3377 39.0813L45.446 39.2119C45.4399 38.6351 45.5242 38.0485 45.6997 37.4588C45.8437 36.9756 46.0277 36.5009 46.2499 36.0365L46.3177 35.8975ZM62.2753 30.3828C62.9445 31.1179 63.3469 32.0884 63.4574 33.2763L63.4654 33.3681L62.5361 33.5853C62.4519 32.5291 62.1177 31.6804 61.56 31.0417L61.5116 30.9875L62.2753 30.3828ZM49.1842 32.247L49.7646 32.8047C48.9316 33.5541 48.2222 34.386 47.6659 35.2756L47.5972 35.3871L46.823 35.0622C47.4181 34.0827 48.1803 33.1682 49.0761 32.3453L49.1842 32.247ZM58.2587 28.741C59.5206 28.8103 60.6207 29.1577 61.4785 29.7799L61.5457 29.8295L60.9137 30.5097C60.1964 29.9693 59.2615 29.6579 58.1698 29.5835L58.0731 29.5775L58.2587 28.741ZM52.9763 29.7057L53.2512 30.4202C52.2639 30.8652 51.3128 31.4299 50.4481 32.0881L50.3251 32.1828L49.8206 31.6066C50.7467 30.8853 51.7678 30.2646 52.8311 29.772L52.9763 29.7057ZM53.8876 29.3838C55.0655 28.9512 56.2487 28.6925 57.3624 28.6266L57.4859 28.6201L57.4023 29.4585C56.3994 29.5052 55.3224 29.7284 54.2423 30.1123L54.1126 30.1591L53.8876 29.3838Z" fill="#F24A00"/>
  <path fill-rule="evenodd" clip-rule="evenodd" d="M88.2686 12.5L91 27.7879L85.5013 27.3021L83.6552 31.5L82.593 28.1695L82.2766 28.514L81.9602 28.8559L81.0172 28.2683C81.5753 27.6674 82.1334 27.0545 82.6913 26.4295L87.2896 15.0827L79.9637 27.0566L75 26.4656L88.2686 12.5Z" fill="#F24A00"/>
</svg>
